<?xml version="1.0" standalone="no"?>
<!DOCTYPE svg PUBLIC "-//W3C//DTD SVG 20010904//EN"
 "http://www.w3.org/TR/2001/REC-SVG-20010904/DTD/svg10.dtd">
<svg version="1.0" xmlns="http://www.w3.org/2000/svg"
 width="500.000000pt" height="500.000000pt" viewBox="0 0 500.000000 500.000000"
 preserveAspectRatio="xMidYMid meet">
<metadata>
Created by potrace 1.14, written by Peter Selinger 2001-2017
</metadata>
<g transform="translate(0.000000,500.000000) scale(0.100000,-0.100000)"
fill="#000000" stroke="none">
<path d="M2255 4918 c-44 -5 -87 -11 -95 -14 -8 -4 -31 -8 -50 -10 -19 -2 -53
-6 -75 -9 -22 -3 -46 -6 -52 -7 -7 -1 -13 -4 -13 -8 0 -3 -10 -6 -22 -7 -37
-2 -82 -13 -92 -24 -6 -5 -20 -9 -33 -9 -13 0 -23 -4 -23 -9 0 -5 -8 -8 -17
-6 -10 1 -31 -4 -46 -12 -15 -7 -31 -11 -36 -9 -5 3 -14 -1 -21 -10 -7 -8 -19
-13 -27 -10 -7 3 -13 1 -13 -4 0 -4 -13 -11 -30 -15 -16 -4 -30 -11 -30 -16 0
-5 -9 -9 -19 -9 -11 0 -23 -5 -26 -11 -4 -6 -14 -8 -22 -5 -8 3 -11 1 -8 -4 3
-6 -1 -10 -10 -10 -16 0 -56 -20 -65 -32 -3 -4 -17 -12 -30 -17 -14 -6 -53
-26 -87 -45 -34 -19 -64 -32 -67 -28 -3 3 -6 -2 -6 -12 0 -9 -5 -14 -10 -11
-5 3 -10 1 -10 -5 0 -6 -4 -9 -8 -6 -5 3 -20 -6 -34 -19 -14 -13 -28 -21 -32
-18 -3 3 -8 -2 -12 -11 -3 -9 -11 -16 -16 -16 -6 0 -17 -8 -25 -17 -8 -10 -12
-12 -8 -5 8 15 -68 -36 -114 -77 -19 -17 -38 -31 -42 -31 -4 0 -32 -23 -61
-51 -29 -28 -53 -49 -53 -47 0 1 -13 -7 -29 -19 -16 -13 -26 -23 -23 -23 3 0
-29 -36 -71 -79 -76 -78 -134 -145 -140 -163 -2 -5 -17 -23 -33 -40 -16 -18
-26 -34 -24 -36 3 -3 -3 -12 -13 -21 -10 -9 -29 -34 -42 -56 -13 -22 -26 -42
-29 -45 -4 -3 -11 -14 -17 -25 -6 -11 -25 -46 -43 -77 -17 -32 -28 -58 -24
-58 4 0 3 -4 -4 -8 -9 -6 -46 -77 -58 -112 -1 -3 -11 -25 -22 -50 -21 -47 -35
-80 -38 -92 -2 -5 -4 -10 -5 -13 -1 -3 -3 -8 -5 -12 -1 -5 -7 -20 -13 -34 -6
-15 -14 -43 -17 -63 -4 -20 -10 -36 -14 -36 -4 0 -8 -6 -9 -12 -1 -20 -13 -71
-17 -79 -3 -4 -7 -24 -11 -45 -3 -22 -9 -41 -13 -44 -3 -3 -7 -28 -9 -55 -6
-82 -7 -90 -14 -95 -4 -3 -8 -32 -9 -65 -2 -33 -7 -66 -12 -72 -6 -9 -6 -13 2
-13 7 0 8 -8 2 -22 -11 -30 -9 -259 3 -277 6 -10 6 -12 -2 -7 -7 4 -12 2 -12
-3 0 -6 3 -11 8 -11 4 0 8 -19 8 -43 2 -79 12 -175 18 -185 3 -5 7 -26 8 -46
2 -20 5 -36 8 -36 3 0 6 -8 7 -17 1 -10 4 -31 7 -48 3 -16 7 -44 9 -61 2 -16
9 -39 15 -51 6 -11 9 -23 6 -26 -3 -3 0 -15 6 -27 6 -12 14 -34 16 -48 9 -50
36 -137 48 -151 9 -12 8 -13 -3 -6 -11 6 -10 2 2 -16 9 -13 17 -29 17 -36 0
-7 10 -35 21 -61 12 -26 27 -60 34 -77 7 -16 23 -52 35 -80 13 -27 22 -52 22
-55 0 -3 5 -12 12 -20 7 -8 24 -35 37 -60 13 -25 27 -49 31 -55 5 -5 32 -46
60 -90 29 -44 56 -81 60 -83 5 -2 8 -10 8 -17 0 -7 3 -15 8 -17 4 -1 25 -25
47 -53 57 -71 248 -261 330 -329 83 -68 87 -71 150 -116 28 -19 52 -38 53 -42
2 -5 8 -6 13 -2 5 3 12 -2 15 -10 3 -9 10 -13 15 -10 5 3 9 1 9 -4 0 -5 14
-15 31 -22 17 -7 36 -18 42 -24 13 -12 77 -43 91 -44 5 0 12 -4 15 -9 5 -7 98
-56 111 -58 3 -1 23 -9 45 -19 22 -10 45 -19 50 -20 6 -2 26 -10 45 -18 19 -9
50 -19 68 -23 18 -4 44 -13 58 -20 13 -7 34 -12 47 -11 12 1 24 -1 27 -5 3 -4
21 -10 40 -13 19 -3 52 -10 73 -15 20 -5 37 -7 37 -4 0 3 6 1 13 -5 7 -6 39
-13 70 -14 31 -2 57 -5 57 -8 0 -3 19 -6 43 -8 63 -4 119 -10 145 -16 13 -3
22 0 22 7 0 9 2 9 8 0 8 -13 23 -14 237 -15 125 0 260 6 260 12 0 1 20 3 45 5
25 2 61 7 80 11 19 4 43 8 53 9 9 2 18 4 20 5 1 1 13 3 27 5 14 1 36 7 50 13
14 5 28 10 33 10 38 3 117 26 117 34 0 6 3 9 6 6 3 -4 20 0 37 7 18 7 34 13
37 13 3 1 18 5 33 11 16 6 30 11 33 11 2 0 44 18 92 41 48 22 88 40 89 40 2 0
24 11 50 26 27 14 57 31 68 37 11 6 23 15 26 19 3 5 13 9 21 10 8 2 21 8 29
15 8 7 50 37 95 66 143 93 302 225 288 239 -4 4 1 7 12 7 12 0 48 31 89 76 39
42 77 84 86 93 8 9 37 45 64 81 27 36 54 68 60 72 5 4 6 8 1 8 -6 0 2 12 16
27 14 16 29 38 32 50 4 11 13 24 21 27 8 3 15 15 15 26 0 11 4 20 9 20 10 0
27 39 23 53 -1 4 3 7 8 7 10 0 27 34 28 54 0 5 5 12 11 15 11 7 101 194 101
211 0 5 5 10 10 10 6 0 10 8 10 18 0 10 3 22 7 26 7 6 13 29 15 54 1 6 6 12
11 12 5 0 7 7 3 15 -3 8 -2 15 3 15 9 0 26 48 23 63 -1 4 5 21 13 37 9 16 15
32 15 35 0 3 0 6 1 8 0 1 2 9 4 17 2 8 13 47 24 85 11 39 22 84 25 100 2 17 5
31 6 33 2 1 4 11 5 22 1 11 3 21 5 23 1 1 3 16 6 32 2 17 6 48 9 70 8 57 18
242 17 295 -3 129 -23 341 -38 410 -3 14 -8 36 -10 50 -2 14 -7 36 -10 50 -3
14 -8 33 -10 43 -2 9 -7 27 -10 40 -3 12 -7 29 -8 37 -2 8 -8 28 -15 43 -6 16
-11 34 -11 41 0 7 -3 16 -7 20 -4 4 -9 19 -11 33 -2 15 -8 36 -15 47 -6 12
-12 26 -13 31 -6 26 -40 111 -47 116 -4 3 -9 16 -10 27 -1 12 -4 22 -8 22 -3
0 -17 25 -30 55 -13 30 -27 55 -32 55 -4 0 -6 4 -3 8 3 5 -6 25 -20 45 -13 20
-25 40 -26 44 -4 17 -33 63 -40 63 -5 0 -8 7 -8 15 0 9 -11 27 -24 40 -13 13
-21 26 -18 29 3 3 0 6 -7 6 -7 0 -10 4 -7 8 3 5 -4 15 -15 22 -10 8 -19 18
-19 23 0 4 -11 19 -25 33 -14 14 -23 29 -21 33 3 4 -6 14 -19 21 -13 7 -22 17
-19 21 3 5 -4 14 -16 21 -11 7 -20 18 -20 25 0 6 -8 14 -18 17 -11 4 -25 18
-32 31 -7 14 -20 25 -28 25 -8 0 -12 6 -8 15 3 8 2 14 -2 14 -18 -3 -33 2 -29
9 3 4 -1 13 -9 20 -8 7 -14 11 -14 8 0 -4 -20 16 -77 77 -6 6 -23 21 -38 32
-14 11 -35 28 -46 38 -10 9 -22 17 -25 17 -3 0 -18 13 -32 28 -15 16 -35 31
-44 35 -10 3 -18 11 -18 17 0 5 -7 10 -15 10 -7 0 -18 6 -22 13 -4 7 -24 20
-43 30 -19 9 -30 17 -25 17 6 0 -5 8 -22 16 -18 9 -30 21 -26 27 3 6 1 7 -5 3
-6 -4 -20 2 -31 13 -11 11 -22 17 -25 13 -3 -3 -6 0 -6 6 0 7 -3 11 -7 10 -11
-2 -67 25 -75 37 -5 6 -8 6 -8 0 0 -5 -5 -3 -10 5 -5 8 -13 15 -17 15 -4 1
-33 14 -63 30 -30 16 -64 30 -75 32 -11 2 -22 8 -23 13 -2 6 -8 8 -13 4 -5 -3
-9 0 -9 6 0 6 -6 10 -12 9 -7 -1 -26 3 -43 10 -16 6 -46 18 -65 25 -19 8 -55
19 -80 26 -49 13 -84 24 -115 35 -11 4 -29 9 -40 10 -18 3 -40 6 -120 21 -16
3 -44 6 -60 8 -17 1 -35 5 -42 9 -28 18 -443 28 -578 15z"/>
</g>
</svg>
